<svg id="mrlogo" data-name="mrlogo" xmlns="http://www.w3.org/2000/svg" viewBox="0 0 462.02 309.63"><title>logo_2</title><path d="M255.16,237.82v1a1.68,1.68,0,0,0-.64,1.46A44.59,44.59,0,0,1,234.24,281c-0.93.58-2,1.15-3.2,1.78-1.24-.63-2.26-1.2-3.19-1.78a44.59,44.59,0,0,1-20.28-40.67,1.67,1.67,0,0,0-.64-1.46v-1H108.41a14.18,14.18,0,0,0-12,6.3c-3,4.33-2.82,10.45.34,14.22a10.32,10.32,0,0,0,7.22,3.52,9.15,9.15,0,0,0,6.87-2.36,7.91,7.91,0,0,0,2.54-6.36,6.73,6.73,0,0,0-2-4.21,3.25,3.25,0,0,0-2.9-1.75,3.29,3.29,0,0,0,0,6.57,3.23,3.23,0,0,0,1.55-.39v0.09a4.56,4.56,0,0,1-1.49,3.58,5.65,5.65,0,0,1-4.34,1.43,6.86,6.86,0,0,1-4.81-2.31c-2.22-2.65-2.28-7-.14-10.12a10.87,10.87,0,0,1,9.22-4.82h95.7A48.21,48.21,0,0,0,226,283.88l1.08,0.65a44.88,44.88,0,0,1-32.69-.21,1.76,1.76,0,0,0-.51-0.22h-0.08a41,41,0,0,1-5-2.53c-7.86-4.67-15.11-13.86-12.46-23A13.82,13.82,0,0,1,199,252.22c4.12,3.78,5.33,10.26,2.77,14.76a10.19,10.19,0,0,1-6.55,4.67,9.67,9.67,0,0,1-4,.09,3.22,3.22,0,0,0,.14-0.93,3.28,3.28,0,1,0-3.86,3.22A12.45,12.45,0,0,0,196,275a13.64,13.64,0,0,0,8.74-6.3c3.37-5.92,1.9-14.06-3.42-18.94a17.26,17.26,0,0,0-28.65,15.58,64.61,64.61,0,0,0-7.38-8.07c-6.25-5.58-13.54-8.13-20-7a14,14,0,0,0-8.87,5.08A10.25,10.25,0,0,0,135,265.65a8.37,8.37,0,0,0,9.64,4.54A7.2,7.2,0,0,0,149.1,266a6.85,6.85,0,0,0,.45-3.61,2.12,2.12,0,0,0,0-.31,3.28,3.28,0,1,0-3.91,3.22,3.63,3.63,0,0,1-2,1.66,5,5,0,0,1-5.56-2.74,6.92,6.92,0,0,1,1-6.91,10.78,10.78,0,0,1,6.75-3.79c5.42-.95,11.67,1.32,17.15,6.21A77.29,77.29,0,0,1,172,270c1.28,1.65,2.61,3.35,4,5,5.63,6.7,10.92,10.6,16.57,12.22A48.21,48.21,0,0,0,211,290.88h0a48.18,48.18,0,0,0,20-4.31,48.52,48.52,0,0,0,38.36.7c5.73-1.65,11-5.54,16.64-12.25,1.38-1.64,2.7-3.34,4-5a77,77,0,0,1,9-10.28c5.47-4.89,11.73-7.15,17.14-6.21a10.77,10.77,0,0,1,6.75,3.79,6.92,6.92,0,0,1,1,6.91,5,5,0,0,1-5.56,2.74,3.63,3.63,0,0,1-2-1.66,3.28,3.28,0,1,0-3.91-3.22,2.29,2.29,0,0,0,0,.31A6.86,6.86,0,0,0,313,266a7.2,7.2,0,0,0,4.44,4.21,8.37,8.37,0,0,0,9.64-4.54,10.25,10.25,0,0,0-1.38-10.41,14,14,0,0,0-8.87-5.08c-6.45-1.11-13.74,1.45-20,7a64.55,64.55,0,0,0-7.38,8.07,17.24,17.24,0,0,0-28.65-15.57c-5.32,4.89-6.79,13-3.42,18.94a13.64,13.64,0,0,0,8.74,6.3,12.44,12.44,0,0,0,8.49-.94,3.28,3.28,0,1,0-3.72-2.28,9.68,9.68,0,0,1-4-.09,10.19,10.19,0,0,1-6.55-4.67c-2.56-4.5-1.35-11,2.76-14.76a13.83,13.83,0,0,1,22.63,6.35c2.64,9.16-4.61,18.35-12.46,23a41.23,41.23,0,0,1-5,2.52l-0.21.06a1.58,1.58,0,0,0-.44.2,44.86,44.86,0,0,1-32.68.21l1.08-.65a48.22,48.22,0,0,0,22-42.68h95.7a10.86,10.86,0,0,1,9.22,4.82c2.14,3.12,2.08,7.47-.14,10.12a6.86,6.86,0,0,1-4.82,2.31,5.67,5.67,0,0,1-4.33-1.43,4.56,4.56,0,0,1-1.49-3.58v-0.09a3.24,3.24,0,0,0,1.55.39,3.29,3.29,0,0,0,0-6.57,3.25,3.25,0,0,0-2.9,1.75,6.75,6.75,0,0,0-2,4.21,7.92,7.92,0,0,0,2.54,6.35,9.13,9.13,0,0,0,6.87,2.36,10.31,10.31,0,0,0,7.22-3.52c3.16-3.78,3.31-9.89.34-14.22a14.18,14.18,0,0,0-12-6.3H255.16Z" transform="translate(-0.03 -0.02)"></path><rect x="78.53" y="228.93" width="304.97" height="3.4"></rect><path d="M226.84,301.76c0-1.25,1.7-4.51,4.21-8.09,2.5,3.58,4.21,6.84,4.21,8.09a4.21,4.21,0,1,1-8.42,0h0m2.86-12c-1,1.36-6.26,8.35-6.26,12a7.61,7.61,0,1,0,15.21.55q0-.28,0-0.55c0-3.64-5.21-10.64-6.26-12L231,288Z" transform="translate(-0.03 -0.02)"></path><path d="M221.21,251.71a9.83,9.83,0,0,1,19.66,0c0,4-5.94,13.21-9.83,18.57-3.89-5.36-9.83-14.59-9.83-18.57m-3.4,0c0,6.75,10.66,20.86,11.88,22.44l1.33,1.77,1.35-1.76c1.22-1.59,11.88-15.72,11.88-22.44a13.23,13.23,0,1,0-26.46,0v0" transform="translate(-0.03 -0.02)"></path><path d="M175.79,77.42A55.25,55.25,0,1,1,231,132.67h0a55.31,55.31,0,0,1-55.23-55.25m-3.4,0A58.65,58.65,0,1,0,231,18.77h0a58.72,58.72,0,0,0-58.63,58.65" transform="translate(-0.03 -0.02)"></path><rect y="150.78" width="462.02" height="3.4"></rect><path d="M279.38,123.58h0ZM91.11,141.28c7.77-4.48,12.58-12.19,17.14-19.76a22.68,22.68,0,0,0,0,4.83,20.76,20.76,0,0,0,9.94,15.58H89.88c0.42-.21.83-0.43,1.22-0.66m262.72-14.93a22.77,22.77,0,0,0,0-4.83c4.56,7.57,9.37,15.27,17.14,19.76,0.39,0.23.8,0.45,1.22,0.66h-28.3a20.76,20.76,0,0,0,9.94-15.58m-233,13.13A17.1,17.1,0,0,1,111.64,126a22.31,22.31,0,0,1,5.12-16.23,24.22,24.22,0,0,1,2-2.18,32.63,32.63,0,0,1,7.18-5,35.84,35.84,0,0,1,25.49-1.95c11.79,3.44,19.93,12,29.35,21.93l1.35,1.42a1.2,1.2,0,0,0,.27.21A67.36,67.36,0,0,0,211.18,142H135.33a14.81,14.81,0,0,0,3.39-2.63c5-5.27,5.35-14.16.74-19.42a13.25,13.25,0,0,0-9.93-4.26,12.46,12.46,0,0,0-8,2.85,3.25,3.25,0,1,0,4.09,1.36,10.11,10.11,0,0,1,11.32,2.26c3.5,4,3.21,10.79-.65,14.83a13.08,13.08,0,0,1-9.46,3.84,14,14,0,0,1-6-1.32m158.82-15.3a1.26,1.26,0,0,0,.27-0.21l1.35-1.42c9.42-9.92,17.55-18.48,29.34-21.92a35.83,35.83,0,0,1,25.49,1.95,32.59,32.59,0,0,1,7.17,5,24.44,24.44,0,0,1,2,2.19A22.32,22.32,0,0,1,350.45,126a17.1,17.1,0,0,1-9.21,13.51c-5.2,2.45-11.69,1.39-15.41-2.52s-4.15-10.84-.65-14.83a10.12,10.12,0,0,1,11.32-2.26,3.29,3.29,0,1,0,4.09-1.36,12.46,12.46,0,0,0-8-2.85h-0.06a13.21,13.21,0,0,0-9.87,4.26c-4.61,5.26-4.27,14.15.74,19.42a14.83,14.83,0,0,0,3.39,2.63H250.88a67.34,67.34,0,0,0,28.78-17.75M169.66,107a90.29,90.29,0,0,0-12.84-9.11c-2.29-1.42-4.66-2.89-7.05-4.57A24,24,0,0,1,140,78.8a14.65,14.65,0,0,1,3-12.39,12.26,12.26,0,0,1,9-4.22,10.36,10.36,0,0,1,2.48.3,10.15,10.15,0,0,1,7.63,8.92,8.71,8.71,0,0,1-6.9,8.83,7.52,7.52,0,0,1-5.76-1.63,7.83,7.83,0,0,1-1.62-1.72,3.28,3.28,0,1,0-4.23-1.15,10.67,10.67,0,0,0,3.76,5.55,11,11,0,0,0,8.39,2.31,11.64,11.64,0,0,0,7.73-5.23A67.35,67.35,0,0,0,170.82,108l-1.24-1.05M306.82,80.24a8.71,8.71,0,0,1-6.9-8.83,10.15,10.15,0,0,1,7.63-8.92,12,12,0,0,1,11.6,3.93,14.65,14.65,0,0,1,3,12.39,24,24,0,0,1-9.74,14.42c-2.38,1.68-4.74,3.14-7,4.57a90.23,90.23,0,0,0-12.83,9.1L291.28,108a67.34,67.34,0,0,0,7.32-29.59,11.63,11.63,0,0,0,7.73,5.23,11,11,0,0,0,8.39-2.31,10.66,10.66,0,0,0,3.76-5.55,3.28,3.28,0,1,0-4.23,1.15,8,8,0,0,1-6.36,3.43,6.39,6.39,0,0,1-1-.08m-140-2.82a64.12,64.12,0,1,1,64.13,64.11h0a64.19,64.19,0,0,1-64.09-64.11m-2.52-10.77a13.76,13.76,0,0,0-9.06-7.47,15.46,15.46,0,0,0-15,5,18.11,18.11,0,0,0-3.72,15.3A27.47,27.47,0,0,0,147.76,96l0.63,0.44a40.26,40.26,0,0,0-13.91-.08,1.22,1.22,0,0,0-.3,0,34.06,34.06,0,0,0-7.82,2.32,31.27,31.27,0,0,0-10.8,7.31,50.93,50.93,0,0,0-8,10.16l-1.62,2.67-0.09.15c-4.49,7.45-9.13,15.17-16.41,19.37a24.48,24.48,0,0,1-19,2.18A22.78,22.78,0,0,1,55,124.64a19.87,19.87,0,0,1,7-20.46c6.19-4.59,15.26-4.56,21.1.07,5.31,4.22,7.22,11.87,4.35,17.42a11.75,11.75,0,0,1-7.76,5.78,10.88,10.88,0,0,1-5.49-.07,3.28,3.28,0,1,0-3.75,2.08,13.64,13.64,0,0,0,10,1.29,15.18,15.18,0,0,0,10-7.52c3.6-6.95,1.29-16.45-5.25-21.64C78.26,96,67.41,96,60,101.45c-7.09,5.26-10.53,15.12-8.36,24a25.94,25.94,0,0,0,13.26,16.49H22.84a10.87,10.87,0,0,1-9.22-4.82c-2.14-3.12-2.08-7.47.14-10.12a6.87,6.87,0,0,1,4.82-2.31,5.75,5.75,0,0,1,4.34,1.43,4.56,4.56,0,0,1,1.49,3.58A3.22,3.22,0,0,1,24,131a2.52,2.52,0,0,0-1.11-.26,2.56,2.56,0,1,0,2,4.16,6.71,6.71,0,0,0,2.92-4.9,7.91,7.91,0,0,0-2.54-6.36,9.09,9.09,0,0,0-6.87-2.35,10.31,10.31,0,0,0-7.22,3.52c-3.16,3.77-3.3,9.89-.34,14.22a14.17,14.17,0,0,0,12,6.3H439.25a14.18,14.18,0,0,0,12-6.3c3-4.33,2.82-10.45-.34-14.22a10.3,10.3,0,0,0-7.22-3.52,9.09,9.09,0,0,0-6.87,2.35,7.91,7.91,0,0,0-2.54,6.36,6.71,6.71,0,0,0,2.92,4.9,2.56,2.56,0,1,0,2-4.16,2.52,2.52,0,0,0-1.11.26,3.19,3.19,0,0,1-.42-1.3,4.56,4.56,0,0,1,1.49-3.58,5.77,5.77,0,0,1,4.34-1.43,6.86,6.86,0,0,1,4.81,2.31c2.22,2.65,2.28,7,.14,10.12a10.87,10.87,0,0,1-9.22,4.82H397.17a25.93,25.93,0,0,0,13.26-16.52c2.16-8.86-1.28-18.71-8.36-24-7.39-5.48-18.23-5.42-25.24.14-6.54,5.19-8.85,14.7-5.25,21.64a15.19,15.19,0,0,0,10,7.53,13.65,13.65,0,0,0,10-1.29,3.28,3.28,0,1,0-4-3.21,3.22,3.22,0,0,0,.2,1.12,10.86,10.86,0,0,1-5.49.07,11.76,11.76,0,0,1-7.76-5.78c-2.87-5.55-1-13.21,4.34-17.42,5.84-4.63,14.91-4.66,21.1-.07a20.08,20.08,0,0,1,7.09,20.44,22.78,22.78,0,0,1-15.4,15.9,24.49,24.49,0,0,1-19-2.18c-7.29-4.21-11.93-11.92-16.42-19.38l-0.27-.43-1.44-2.37a50.94,50.94,0,0,0-8-10.14,31.33,31.33,0,0,0-10.8-7.32,34,34,0,0,0-7.84-2.32,1.22,1.22,0,0,0-.3,0,40.25,40.25,0,0,0-13.91.08l0.59-.43a27.46,27.46,0,0,0,11.11-16.5,18.12,18.12,0,0,0-3.72-15.3,15.46,15.46,0,0,0-15-5,13.76,13.76,0,0,0-9,7.47,67.5,67.5,0,0,0-133.27,0" transform="translate(-0.03 -0.02)"></path><path d="M298.14,121.77a4.24,4.24,0,0,1,6,6c-0.88.88-4.39,2-8.7,2.74,0.76-4.3,1.86-7.81,2.74-8.69m-2.4-2.4c-2.59,2.58-3.84,11.21-4.06,12.91l-0.29,2.2,2.2-.29c1.7-.22,10.33-1.48,12.91-4.06a7.61,7.61,0,1,0-10.54-11l-0.22.22" transform="translate(-0.03 -0.02)"></path><path d="M158,127.72a4.22,4.22,0,1,1,5.95-6c0.89,0.88,2,4.39,2.74,8.69-4.3-.76-7.81-1.86-8.69-2.74m-2.4-8.35a7.62,7.62,0,0,0,0,10.76c2.59,2.58,11.21,3.84,12.91,4.06l2.2,0.29-0.29-2.2c-0.23-1.7-1.48-10.33-4.06-12.91a7.61,7.61,0,0,0-10.76,0" transform="translate(-0.03 -0.02)"></path><path d="M161.24,44.29a2.56,2.56,0,1,0,2.56-2.57,2.56,2.56,0,0,0-2.56,2.57" transform="translate(-0.03 -0.02)"></path><path d="M297.68,45.56a2.57,2.57,0,0,0,3.93,3.3h0a2.59,2.59,0,0,0-4-3.29" transform="translate(-0.03 -0.02)"></path><path d="M292.69,33.28a2.55,2.55,0,1,0,.67-0.09,2.55,2.55,0,0,0-.67.09" transform="translate(-0.03 -0.02)"></path><path d="M282.76,24.69A2.57,2.57,0,1,0,285.18,23a2.57,2.57,0,0,0-2.42,1.67" transform="translate(-0.03 -0.02)"></path><path d="M273.88,14.85a2.56,2.56,0,1,0,1.92-.43,2.7,2.7,0,0,0-.45,0,2.56,2.56,0,0,0-1.47.46" transform="translate(-0.03 -0.02)"></path><path d="M261.61,10.18a2.57,2.57,0,1,0,2.57-2.57,2.57,2.57,0,0,0-2.57,2.57h0" transform="translate(-0.03 -0.02)"></path><path d="M251.55,2.92A2.56,2.56,0,1,0,252,8a2.61,2.61,0,0,0,.45,0A2.58,2.58,0,0,0,252,2.88a2.63,2.63,0,0,0-.45,0" transform="translate(-0.03 -0.02)"></path><path d="M238.3,0.49a2.57,2.57,0,1,0,.88-0.15,2.54,2.54,0,0,0-.88.16" transform="translate(-0.03 -0.02)"></path><path d="M224.84,0.4A2.57,2.57,0,1,0,226.11,0a2.57,2.57,0,0,0-1.27.38" transform="translate(-0.03 -0.02)"></path><path d="M211.56,2.65a2.57,2.57,0,1,0,1.65-.6,2.57,2.57,0,0,0-1.65.6" transform="translate(-0.03 -0.02)"></path><path d="M200.61,6.26a2.56,2.56,0,0,0,.22,5.12H201a2.56,2.56,0,1,0-.23-5.12h-0.22" transform="translate(-0.03 -0.02)"></path><path d="M187.16,13.82a2.57,2.57,0,0,0,2.22,3.85,2.64,2.64,0,0,0,.67-0.09,2.57,2.57,0,1,0-2.89-3.76" transform="translate(-0.03 -0.02)"></path><path d="M176.78,22.41a2.56,2.56,0,1,0,2.41-1.69,2.56,2.56,0,0,0-2.41,1.69" transform="translate(-0.03 -0.02)"></path><path d="M169.11,31a2.55,2.55,0,1,0,1.47-.46,2.55,2.55,0,0,0-1.47.46" transform="translate(-0.03 -0.02)"></path><path d="M226,56.82L213.7,89l-12.17-32.2H192.4v0.45q1.2,0.08,1.87.17a4.25,4.25,0,0,1,1.57.65,5.27,5.27,0,0,1,.89.65,6.06,6.06,0,0,1,.79.83,1.28,1.28,0,0,1,.32.57L196.28,89a24.14,24.14,0,0,1-.47,3.62,4.12,4.12,0,0,1-1.29,2.2,4.29,4.29,0,0,1-2.88.91v0.43h9.9V95.7a6.73,6.73,0,0,1-2.53-.81,3.12,3.12,0,0,1-1.24-1.82,11,11,0,0,1-.28-3.56l1.41-27.86H199l13.13,34.48L226,60.35h0.11l1.36,30.21a5.71,5.71,0,0,1-.75,3.7,4.65,4.65,0,0,1-3.39,1.45v0.43H236V95.7q-2.78,0-3.6-1.36a6.26,6.26,0,0,1-.88-3.17L230.22,62a0.74,0.74,0,0,1,0-.48,7.69,7.69,0,0,1,.28-2.14A3.23,3.23,0,0,1,231.64,58a2.64,2.64,0,0,1,1.07-.55c0.32-.06.85-0.14,1.6-0.23V56.82H226Z" transform="translate(-0.03 -0.02)"></path><path d="M247.43,58.1a12.39,12.39,0,0,1,8.31,1.24A8.23,8.23,0,0,1,258.83,63a11.42,11.42,0,0,1,.91,4.44,9.6,9.6,0,0,1-1,4.6,6.66,6.66,0,0,1-3.27,2.9,14.18,14.18,0,0,1-5.78,1h-2.24V58.1h0Zm-8.25-1.28v0.56h0.53a3.82,3.82,0,0,1,2.51,1,4.11,4.11,0,0,1,1.15,3.31V91.38a4.73,4.73,0,0,1-.6,2.55,3.34,3.34,0,0,1-1.51,1.33,6,6,0,0,1-2.08.44v0.43H251.7V95.7q-4.27-.13-4.27-4.32V77a15.73,15.73,0,0,1,2.41.16,8,8,0,0,1,2.31.8,11.07,11.07,0,0,1,2.76,2.12A19.52,19.52,0,0,1,257.8,84l4.7,7.77a9.74,9.74,0,0,1,.63.92l0.79,1.21L264.78,95l0.85,1.14h7.15V95.7a5.78,5.78,0,0,1-2.87-1.2q-1.46-1.07-3.86-5.1l-3.55-6q-3-5.07-6.51-6.78v-0.1a10.66,10.66,0,0,0,4.63-1.92,8.79,8.79,0,0,0,2.75-3.37,9.77,9.77,0,0,0,.89-4.1,11.3,11.3,0,0,0-.55-3.42,10,10,0,0,0-1.82-3.3,9.34,9.34,0,0,0-3.55-2.57,13.64,13.64,0,0,0-5.56-1H239.19v0Z" transform="translate(-0.03 -0.02)"></path><polygon points="46.49 169.35 29.45 209.64 29.26 209.64 12.19 169.35 7.18 169.35 7.18 215.39 11.27 215.39 11.27 177.61 11.46 177.61 27.44 215.16 31.24 215.16 47.25 177.61 47.45 177.61 47.45 215.39 51.53 215.39 51.53 169.35 46.49 169.35"></polygon><rect x="65.04" y="169.35" width="4.34" height="46.04"></rect><polygon points="82.9 169.35 82.9 215.39 110.3 215.39 110.3 211.43 87.24 211.43 87.24 169.35 82.9 169.35"></polygon><polygon points="121.36 169.35 121.36 215.39 148.76 215.39 148.76 211.43 125.7 211.43 125.7 169.35 121.36 169.35"></polygon><polygon points="159.82 169.35 159.82 215.39 187.61 215.39 187.61 211.43 164.16 211.43 164.16 193.76 186.43 193.76 186.43 189.86 164.16 189.86 164.16 173.31 187.61 173.31 187.61 169.35 159.82 169.35"></polygon><path d="M204.31,173.27h11.61a11.49,11.49,0,0,1,7.9,2.57,9.1,9.1,0,0,1,2.86,7.13,9.23,9.23,0,0,1-2.79,7.18q-2.79,2.55-7.8,2.55H204.31V173.27Zm-4.29-3.9v46h4.34V196.55h12.48l10.59,18.86h5.07l-11.18-19.56a12.64,12.64,0,0,0,7.24-4.66,13.5,13.5,0,0,0,2.62-8.36,12.63,12.63,0,0,0-4-9.81q-4-3.65-10.73-3.65H200Z" transform="translate(-0.03 -0.02)"></path><path d="M266.85,173.27h11.61a11.49,11.49,0,0,1,7.9,2.57,9.1,9.1,0,0,1,2.86,7.13,9.24,9.24,0,0,1-2.79,7.18q-2.79,2.55-7.8,2.55H266.85V173.27Zm-4.34-3.89v46h4.34V196.55h12.47l10.59,18.86H295l-11.14-19.56a12.64,12.64,0,0,0,7.24-4.66,13.5,13.5,0,0,0,2.62-8.36,12.63,12.63,0,0,0-4-9.81q-4-3.65-10.73-3.65h-16.5Z" transform="translate(-0.03 -0.02)"></path><rect x="305.63" y="169.35" width="4.34" height="46.04"></rect><polygon points="355.01 169.35 355.01 207.79 354.79 207.79 327.79 169.35 323.49 169.35 323.49 215.39 327.79 215.39 327.79 176.91 328.02 176.91 355.1 215.39 359.32 215.39 359.32 169.35 355.01 169.35"></polygon><path d="M376.64,175q-5.62,6.41-5.62,17.1,0,10.88,5.66,17.45t15,6.57q9,0,14-5.15t5.07-14.28v-4.43H392.16v3.83h14.29v1.63a13.86,13.86,0,0,1-4,10.43q-4,3.92-10.72,3.92a14.42,14.42,0,0,1-11.8-5.43q-4.4-5.42-4.4-14.55t4.35-14.21q4.35-5.22,11.85-5.22a14.89,14.89,0,0,1,9.08,2.81,14.07,14.07,0,0,1,5.26,7.73h4.53A17.17,17.17,0,0,0,404,172.63a19.59,19.59,0,0,0-12.38-4q-9.41,0-15,6.4" transform="translate(-0.03 -0.02)"></path><path d="M426.22,172.23a11.22,11.22,0,0,0-4.47,9.14,9.77,9.77,0,0,0,3,7.37q3,2.84,9.36,4.47l5.71,1.47Q445,196,447.29,198a6.64,6.64,0,0,1,2.33,5.25,7.72,7.72,0,0,1-3.33,6.41,13.71,13.71,0,0,1-8.5,2.52,15,15,0,0,1-9-2.57,8.89,8.89,0,0,1-3.93-6.72h-4.37a12.61,12.61,0,0,0,5,9.59q4.66,3.66,11.87,3.65,7.62,0,12.15-3.65a11.85,11.85,0,0,0,4.53-9.71,10,10,0,0,0-3.09-7.66q-3.1-2.87-10-4.63l-5-1.28a19.6,19.6,0,0,1-7.37-3.17,6,6,0,0,1-2.27-4.83,7.47,7.47,0,0,1,3.14-6.2,12.7,12.7,0,0,1,8-2.41,13.06,13.06,0,0,1,8.07,2.38,8.39,8.39,0,0,1,3.48,6.27h4.37a11.65,11.65,0,0,0-4.64-9,19.41,19.41,0,0,0-22.44,0" transform="translate(-0.03 -0.02)"></path></svg>